<svg width="439.472656" height="268.372070" viewBox="0 0 439.473 268.372" fill="none" xmlns="http://www.w3.org/2000/svg" xmlns:xlink="http://www.w3.org/1999/xlink">
	<desc>
			Created with Pixso.
	</desc>
	<defs>
		<linearGradient x1="219.736481" y1="0.000000" x2="219.736481" y2="268.372101" id="paint_linear_13_390_0" gradientUnits="userSpaceOnUse">
			<stop stop-color="#969AF7"/>
			<stop offset="1.000000" stop-color="#686EEC"/>
		</linearGradient>
		<linearGradient x1="-53.466919" y1="-21.017181" x2="407.656921" y2="268.372284" id="paint_linear_13_390_1" gradientUnits="userSpaceOnUse">
			<stop offset="0.085152" stop-color="#041080"/>
			<stop offset="1.000000" stop-color="#0926C0"/>
		</linearGradient>
	</defs>
	<path id="Union" d="M20 0C8.95 0 0 8.95 0 20L0 248.37C0 259.41 8.95 268.37 20 268.37L393 268.37C404.04 268.37 413 259.41 413 248.37L413 177.07L438.31 139.32C439.85 137.03 439.85 133.31 438.31 131.01L413 93.26L413 20C413 8.95 404.04 0 393 0L20 0Z" fill="#969AF7" fill-opacity="1.000000" fill-rule="nonzero"/>
	<path id="Union" d="M20 0C8.95 0 0 8.95 0 20L0 248.37C0 259.41 8.95 268.37 20 268.37L393 268.37C404.04 268.37 413 259.41 413 248.37L413 177.07L438.31 139.32C439.85 137.03 439.85 133.31 438.31 131.01L413 93.26L413 20C413 8.95 404.04 0 393 0L20 0Z" fill="url(#paint_linear_13_390_0)" fill-opacity="1.000000" fill-rule="nonzero"/>
	<path id="Union" d="M20 0C8.95 0 0 8.95 0 20L0 248.37C0 259.41 8.95 268.37 20 268.37L393 268.37C404.04 268.37 413 259.41 413 248.37L413 177.07L438.31 139.32C439.85 137.03 439.85 133.31 438.31 131.01L413 93.26L413 20C413 8.95 404.04 0 393 0L20 0Z" fill="url(#paint_linear_13_390_1)" fill-opacity="1.000000" fill-rule="nonzero"/>
</svg>
